<svg width="57" height="49" viewBox="0 0 57 49" fill="none" xmlns="http://www.w3.org/2000/svg">
<path d="M28.8934 2.14991C29.4122 2.14991 29.8774 2.18574 30.3247 2.23949C31.8991 2.45448 33.062 2.92029 34.3143 3.56526C35.8887 4.37148 37.32 5.44643 38.5902 6.77221C41.9179 10.6062 44.9414 14.7269 47.5714 19.0446C49.9687 22.9682 52.062 27.0888 53.8331 31.317C54.352 32.7682 54.674 34.2731 54.8171 35.796C54.8887 36.853 54.9066 38.8238 54.7098 39.7554C54.1731 42.3711 51.9188 45.5781 48.2333 46.4559C47.1599 46.7068 46.2117 46.8322 45.3171 46.8322C42.7767 46.8322 40.7908 45.7751 39.288 43.6073C39.288 43.6073 36.6043 38.4834 36.336 37.9459C35.2089 35.6347 33.1693 32.374 28.4998 32.374C23.8303 32.374 22.5601 35.4914 21.1646 37.6413C20.771 38.2505 17.7117 43.6073 17.7117 43.6073C16.191 45.7751 14.223 46.8322 11.6825 46.8322C10.8058 46.8322 9.85763 46.7068 8.78419 46.4559C5.09869 45.5781 2.84445 42.3532 2.30773 39.7554C2.11093 38.8238 2.12882 36.853 2.20038 35.7781C2.34351 34.2552 2.66554 32.7503 3.18437 31.317C4.95556 27.0888 7.04878 22.9682 9.44614 19.0446C12.0761 14.7448 15.0996 10.6062 18.4273 6.79013C19.6976 5.46435 21.1467 4.37148 22.7032 3.58318C23.9556 2.93821 25.1185 2.45448 26.6928 2.2574C27.1401 2.20366 27.6053 2.16782 28.1241 2.16782H28.8934M28.8934 0H28.1241C27.4979 0 26.9433 0.0358318 26.4066 0.107495C24.4207 0.376234 22.9895 1.00329 21.7371 1.66618C19.9659 2.57989 18.3379 3.79817 16.8887 5.30311C16.8708 5.32102 16.835 5.35686 16.8171 5.37477C13.4179 9.29835 10.3228 13.5265 7.62128 17.9338C5.17025 21.9291 3.02336 26.1572 1.21639 30.475C1.1985 30.5108 1.18061 30.5645 1.16272 30.6004C0.590211 32.2128 0.214505 33.8969 0.0713789 35.5989C0.0713789 35.6168 0.0713789 35.6347 0.0713789 35.6347C0.0177066 36.4409 -0.0717473 38.8417 0.214505 40.1854C0.572321 41.9411 1.48475 43.7148 2.77289 45.166C4.27571 46.868 6.19002 48.0325 8.30114 48.5342C9.5356 48.8388 10.6627 48.9821 11.7004 48.9821C14.9565 48.9821 17.5686 47.5846 19.5008 44.8435C19.5365 44.7898 19.5723 44.736 19.6081 44.6823C20.771 42.6399 22.7211 39.2358 22.9895 38.8238C23.1684 38.555 23.3473 38.2684 23.5083 37.9817C24.6712 36.0468 25.6015 34.5239 28.5177 34.5239C31.8454 34.5239 33.3661 36.7276 34.4217 38.8775C34.69 39.4329 37.1232 44.0731 37.3915 44.6106C37.4273 44.6823 37.481 44.7718 37.5347 44.8435C39.449 47.5846 42.0789 48.9821 45.335 48.9821C46.3906 48.9821 47.4998 48.8388 48.7522 48.5342C50.8812 48.0325 52.7776 46.868 54.2804 45.166C55.5686 43.7148 56.481 41.9411 56.8388 40.1854C57.1251 38.8238 57.0356 36.4409 56.9819 35.6347C56.9819 35.6168 56.9819 35.5989 56.9819 35.5989C56.8388 33.9148 56.4631 32.2307 55.8906 30.6004C55.8727 30.5645 55.8548 30.5287 55.8369 30.4929C54.0299 26.1751 51.8831 21.947 49.432 17.9338C46.6947 13.5265 43.5996 9.29835 40.2004 5.37477C40.1825 5.35686 40.1467 5.32102 40.1288 5.30311C38.6976 3.79817 37.0516 2.57989 35.2804 1.66618C34.0281 1.02121 32.5968 0.376234 30.6109 0.107495C30.0742 0.0358318 29.5017 0 28.8934 0Z" fill="black"/>
<path d="M28.8932 5.73292C29.2511 5.73292 29.5552 5.75083 29.8236 5.78666C30.9149 5.92999 31.6842 6.25248 32.6503 6.75412C33.849 7.36326 34.9403 8.1874 35.9243 9.2086C39.091 12.8634 41.9893 16.8049 44.494 20.9256C46.7661 24.6521 48.7878 28.5936 50.4695 32.6247C50.8631 33.7534 51.1136 34.9179 51.2209 36.0825C51.2925 37.1753 51.2567 38.6444 51.1852 39.0386C50.9347 40.2748 49.6644 42.4247 47.3744 42.9801C46.5693 43.1772 45.8895 43.2667 45.2991 43.2667C43.9752 43.2667 43.1343 42.8368 42.3113 41.7439C41.059 39.3432 39.6814 36.7095 39.5204 36.387C37.0693 31.3527 33.3481 28.8086 28.4818 28.8086C22.3452 28.8086 19.8942 32.8397 18.5882 35.0075C18.4271 35.2583 18.284 35.5091 18.1588 35.7062C17.7652 36.3333 15.511 40.2569 14.7059 41.6901C13.8829 42.8188 13.0241 43.2667 11.7002 43.2667C11.1098 43.2667 10.43 43.1772 9.62489 42.9801C7.31698 42.4247 6.06462 40.2748 5.81415 39.0386C5.74259 38.6444 5.70681 37.1753 5.77837 36.0825C5.88572 34.9179 6.13619 33.7534 6.52978 32.6247C8.21152 28.5936 10.2332 24.67 12.5053 20.9256C15.01 16.8049 17.9083 12.8634 21.075 9.2086C22.059 8.1874 23.1682 7.36326 24.349 6.75412C25.333 6.25248 26.1023 5.92999 27.1757 5.78666C27.462 5.75083 27.7661 5.73292 28.1239 5.73292H28.8932ZM28.8932 3.58301H28.1239C27.6588 3.58301 27.2652 3.60092 26.8895 3.65467C25.5298 3.83383 24.5279 4.2459 23.365 4.83712C21.9695 5.55376 20.6814 6.5033 19.5364 7.68575C19.5006 7.72158 19.4827 7.7395 19.4469 7.77533C16.1908 11.5377 13.2388 15.5867 10.6626 19.7969C8.31886 23.6309 6.26142 27.662 4.54391 31.7826C4.52602 31.8185 4.50813 31.8722 4.49024 31.9081C4.04297 33.198 3.75671 34.5417 3.63148 35.8854C3.63148 35.9033 3.63148 35.9212 3.63148 35.9391C3.55992 36.8887 3.55992 38.6982 3.70304 39.4506V39.4686C4.07875 41.296 5.83204 44.2879 9.12395 45.0762C10.09 45.3092 10.9309 45.4166 11.7002 45.4166C13.7219 45.4166 15.2247 44.6283 16.4413 42.9622C16.4949 42.8905 16.5307 42.8368 16.5665 42.7651C18.3914 39.5761 19.7153 37.2649 19.9658 36.8887C20.1268 36.6558 20.2878 36.387 20.4309 36.1362C21.6833 34.0759 23.5797 30.9585 28.4997 30.9585C32.543 30.9585 35.5307 33.0368 37.6239 37.3366C37.8207 37.7486 39.4846 40.9377 40.4328 42.7472C40.4865 42.8547 40.5401 42.9442 40.6117 43.0338C41.8283 44.6642 43.3132 45.4346 45.317 45.4346C46.0863 45.4346 46.9272 45.3271 47.8932 45.0942C51.1852 44.3059 52.9384 41.3139 53.3142 39.5044V39.4865C53.4573 38.734 53.4573 36.9245 53.3857 35.975C53.3857 35.957 53.3857 35.9391 53.3857 35.9212C53.2605 34.5775 52.9742 33.2338 52.527 31.9439C52.5091 31.9081 52.4912 31.8543 52.4733 31.8185C50.7379 27.6978 48.6804 23.6667 46.3546 19.8327C43.7784 15.6225 40.8264 11.5735 37.5703 7.82908C37.5524 7.79325 37.5166 7.77533 37.4808 7.7395C36.3358 6.55705 35.0477 5.58959 33.6343 4.87295C32.4893 4.28173 31.4874 3.86966 30.1098 3.6905C29.752 3.60092 29.3405 3.58301 28.8932 3.58301Z" fill="black"/>
<path d="M28.8933 9.31592C29.1259 9.31592 29.269 9.33384 29.3405 9.33384C29.8773 9.4055 30.253 9.54883 31.0223 9.94298C31.8453 10.373 32.6146 10.9284 33.3123 11.645C36.3358 15.1386 39.0731 18.883 41.4526 22.7887C43.6174 26.336 45.5317 30.0625 47.1419 33.8965C47.4102 34.7028 47.5891 35.5448 47.6786 36.3689C47.7323 37.1035 47.7144 37.9993 47.6786 38.3755C47.5712 38.6443 47.1598 39.3609 46.5515 39.5042C46.0326 39.6296 45.6211 39.6834 45.317 39.6834H45.2991C43.85 36.9243 42.8839 35.0432 42.7586 34.8103C38.8942 26.8914 32.8829 25.2252 28.4997 25.2252C20.3594 25.2252 16.978 30.7792 15.5468 33.1441C15.4036 33.377 15.2784 33.5741 15.1532 33.7711C14.7596 34.3803 13.0957 37.2827 11.7181 39.6834C11.7002 39.6834 11.7002 39.6834 11.6823 39.6834C11.3782 39.6834 10.9488 39.6296 10.4479 39.5042C9.8396 39.3609 9.42811 38.6443 9.32077 38.3755C9.30288 37.9993 9.28499 37.1035 9.32077 36.3689C9.41022 35.5448 9.58913 34.7028 9.85749 33.8965C11.4677 30.0805 13.382 26.336 15.5468 22.7887C17.9441 18.8651 20.6814 15.1207 23.6871 11.645C24.3848 10.9463 25.1541 10.373 25.9592 9.9609C26.7464 9.56675 27.1221 9.42342 27.6409 9.35176C27.7304 9.33384 27.8556 9.33384 28.1061 9.33384H28.8933M28.8933 7.16602H28.124C27.8198 7.16602 27.5872 7.18393 27.3547 7.21976C26.4959 7.34517 25.8518 7.596 24.9931 8.0439C23.9733 8.56346 23.0251 9.26218 22.1842 10.1221C22.1485 10.158 22.1127 10.1938 22.0948 10.2296C18.9997 13.7949 16.1908 17.6468 13.7398 21.66C11.5213 25.2969 9.55335 29.1309 7.9074 33.0545C7.88951 33.1082 7.87161 33.1441 7.85372 33.1978C7.53169 34.1653 7.317 35.1507 7.20966 36.1539C7.20966 36.1719 7.20966 36.2077 7.20966 36.2256C7.15598 37.0139 7.17387 37.9814 7.20966 38.5009C7.22755 38.7159 7.26333 38.9309 7.35278 39.128C7.7106 40.0596 8.60514 41.2421 9.98273 41.5825C10.6626 41.7437 11.2351 41.8333 11.7181 41.8333C11.736 41.8333 11.7718 41.8333 11.7897 41.8333C12.5411 41.8154 13.2388 41.4033 13.6324 40.7583C16.1729 36.3152 16.8349 35.2044 16.9959 34.9536C17.1211 34.7565 17.2464 34.5415 17.3895 34.3265L17.4253 34.2907C18.785 32.0512 21.6117 27.3931 28.5534 27.3931C34.0279 27.3931 38.1786 30.2059 40.8801 35.7777C41.0232 36.0644 42.0788 38.0889 43.4385 40.7046C43.7963 41.4033 44.5119 41.8512 45.2991 41.8512C45.317 41.8512 45.3349 41.8512 45.3528 41.8512C45.8358 41.8512 46.4083 41.7795 47.0882 41.6004C48.4479 41.2779 49.3603 40.0775 49.7181 39.1638C49.7897 38.9667 49.8434 38.7518 49.8613 38.5368C49.897 38.1068 49.9149 37.1035 49.8613 36.2435C49.8613 36.2256 49.8613 36.1898 49.8613 36.1719C49.7718 35.1865 49.5571 34.1832 49.2172 33.2157C49.1993 33.162 49.1814 33.1262 49.1635 33.0724C47.5176 29.1488 45.5496 25.3148 43.3311 21.6779C40.8801 17.6647 38.0712 13.8128 34.9761 10.2476C34.9404 10.2117 34.9046 10.1759 34.8867 10.1401C34.0279 9.28009 33.0797 8.56346 32.0421 8.0439C31.2012 7.61391 30.5571 7.34517 29.6626 7.21976C29.4121 7.18393 29.1795 7.16602 28.8933 7.16602Z" fill="black"/>
</svg>
